# xmcd
#
# Track frame offsets: 
#        150
#        13839
#        33003
#        51080
#        74774
#        90458
#        103262
#        123536
#        138313
#        153165
#        173319
#        187766
#        211168
#        228765
#        244637
#        264941
#        276868
#        290970
#
# Disc length: 4152 seconds
#
# Revision: 0
# Processed by: cddbd v1.5.2PL0 Copyright (c) Steve Scherf et al.
# Submitted via: ExactAudioCopyFreeDBPlugin 1.0
#
DISCID=f2103612
DTITLE=Various Artist - The Man Of Somebody's Dreams: A Tribute To Ch
DTITLE=ris Gaffney
DYEAR=2009
DGENRE=Country
TTITLE0=Joe Ely - Lift Your Leg
TTITLE1=Boz Skaggs - Midnight Dream
TTITLE2=Los Lobos - Man Of Somebody's Dreams
TTITLE3=Dave Alvin - Artesia
TTITLE4=Peter Case - Six Nights A Week
TTITLE5=Tom Russell - If Daddy Don't Sing Danny Boy
TTITLE6=Calexico - Frank's Tavern
TTITLE7=James McMurtry - Fight (Tonight's The Night)
TTITLE8=The Texas Tornados - The Gardens
TTITLE9=Jim Lauderdale And Ollabelle - Glass House
TTITLE10=Iguanas - Get Off My Back Lucy
TTITLE11=Alejandro Escovedo - 1968
TTITLE12=Robbie Fulks - King Of The Blues
TTITLE13=John Doe - Quiet Desperation
TTITLE14=Dave Gonzalez - Tired Of Being Me
TTITLE15=Big Sandy And Los Straitjackets - Silent Partner
TTITLE16=Dan Penn - I'm So Proud
TTITLE17=Chris Gaffney - Guitars Of My Dead Friends
EXTD=
EXTT0=
EXTT1=
EXTT2=
EXTT3=
EXTT4=
EXTT5=
EXTT6=
EXTT7=
EXTT8=
EXTT9=
EXTT10=
EXTT11=
EXTT12=
EXTT13=
EXTT14=
EXTT15=
EXTT16=
EXTT17=
PLAYORDER=
